
<svg width="70" height="70" viewBox="0 0 70 70" fill="none" xmlns="http://www.w3.org/2000/svg">
<g filter="url(#filter0_d)">
<circle cx="35" cy="31" r="31" fill="white"/>
</g>
<path d="M22.6983 25.9688H33.1983V37.7812H22.6983V25.9688Z" fill="#4E342E"/>
<path d="M31.2812 37.125L28 37.7988L24.7187 37.125C24.7187 37.125 17.5 38.4611 17.5 45.875H38.5C38.5 38.4891 31.2812 37.125 31.2812 37.125Z" fill="#455A64"/>
<path d="M49 27.5H42L38.5 31V18.75C38.5 16.8154 40.0654 15.25 42 15.25H49C50.9346 15.25 52.5 16.8154 52.5 18.75V24C52.5 25.9311 50.9346 27.5 49 27.5Z" fill="#455A64"/>
<path d="M27.9483 40.4062C26.6875 40.4062 24.8858 37.125 24.8858 37.125V32.75H31.0108V37.125C31.0108 37.125 29.2066 40.4062 27.9483 40.4062Z" fill="#FF9800"/>
<path d="M34.0733 30.125C34.0733 33.3861 31.2095 36.25 27.9483 36.25C24.6846 36.25 21.8233 33.3861 21.8233 30.125V24.875C21.8233 21.6139 34.0733 19.8639 34.0733 24.875V30.125ZM27.9483 41.5C30.4841 41.5 31.0108 37.125 31.0108 37.125C31.0108 37.125 29.3772 39.75 27.9483 39.75C26.516 39.75 24.8858 37.125 24.8858 37.125C24.8858 37.125 25.4091 41.5 27.9483 41.5Z" fill="#FFB74D"/>
<path d="M27.9484 43.25C31.066 43.25 32.3881 39.7911 32.7127 37.573C31.8762 37.2449 31.2812 37.125 31.2812 37.125L31.0013 37.1828C30.933 37.6859 30.317 41.5 27.9484 41.5C25.522 41.5 24.9375 37.5179 24.8894 37.1591L24.7188 37.125C24.7188 37.125 24.08 37.2484 23.1875 37.6071C23.5226 39.8253 24.8456 43.25 27.9484 43.25Z" fill="#90A4AE"/>
<path d="M29.6983 29.25C29.6983 28.7679 30.0877 28.375 30.5733 28.375C31.0555 28.375 31.4483 28.7679 31.4483 29.25C31.4483 29.7321 31.0555 30.125 30.5733 30.125C30.0886 30.125 29.6983 29.7321 29.6983 29.25ZM24.4483 29.25C24.4483 29.7321 24.8377 30.125 25.3233 30.125C25.8055 30.125 26.1983 29.7321 26.1983 29.25C26.1983 28.7679 25.8055 28.375 25.3233 28.375C24.8386 28.375 24.4483 28.7679 24.4483 29.25Z" fill="#784719"/>
<path d="M27.9483 19.625C23.9592 19.625 18.3233 21.4538 18.3233 34.5L22.6983 37.7813V28.375L30.5733 24L33.1983 27.5V38L37.5733 33.625C37.5733 30.9825 37.3476 20.9375 30.5733 20.9375L29.6983 19.625H27.9483Z" fill="#FF5722"/>
<defs>
<filter id="filter0_d" x="0" y="0" width="70" height="70" filterUnits="userSpaceOnUse" color-interpolation-filters="sRGB">
<feFlood flood-opacity="0" result="BackgroundImageFix"/>
<feColorMatrix in="SourceAlpha" type="matrix" values="0 0 0 0 0 0 0 0 0 0 0 0 0 0 0 0 0 0 127 0" result="hardAlpha"/>
<feOffset dy="4"/>
<feGaussianBlur stdDeviation="2"/>
<feColorMatrix type="matrix" values="0 0 0 0 0.898039 0 0 0 0 0.898039 0 0 0 0 0.898039 0 0 0 1 0"/>
<feBlend mode="normal" in2="BackgroundImageFix" result="effect1_dropShadow"/>
<feBlend mode="normal" in="SourceGraphic" in2="effect1_dropShadow" result="shape"/>
</filter>
</defs>
</svg>
